<?xml version="1.0" standalone="no"?>
<!DOCTYPE svg PUBLIC "-//W3C//DTD SVG 20010904//EN"
 "http://www.w3.org/TR/2001/REC-SVG-20010904/DTD/svg10.dtd">
<svg version="1.0" xmlns="http://www.w3.org/2000/svg"
 width="1024.000000pt" height="1024.000000pt" viewBox="0 0 1024.000000 1024.000000"
 preserveAspectRatio="xMidYMid meet">

<g transform="translate(0.000000,1024.000000) scale(0.100000,-0.100000)"
fill="#000000" stroke="none">
<path d="M3620 7473 c-473 -45 -852 -187 -1245 -466 -55 -39 -165 -120 -245
-180 -149 -112 -223 -153 -370 -207 -47 -17 -95 -38 -108 -46 -59 -39 -125
-200 -156 -383 -21 -122 -22 -400 -2 -504 14 -71 45 -149 65 -161 4 -3 14 42
20 99 40 353 182 575 369 575 130 0 236 -129 297 -363 36 -138 48 -267 43
-455 l-4 -167 250 -42 c303 -50 1118 -192 1571 -273 181 -32 331 -57 333 -56
2 2 -6 50 -17 107 -28 147 -35 259 -22 370 38 340 186 596 401 698 48 23 68
26 160 26 100 0 109 -2 175 -34 50 -25 93 -57 151 -115 125 -126 200 -271 250
-485 36 -153 43 -391 16 -551 -23 -133 -23 -132 62 -150 74 -15 464 -30 811
-30 880 0 1708 83 2018 202 87 33 138 77 157 133 10 31 9 40 -11 73 -28 47
-27 84 5 282 15 85 26 175 26 201 0 54 -41 225 -67 277 -24 47 -38 50 -53 10
-11 -27 -14 -29 -17 -13 -2 11 -11 56 -19 99 -21 110 -63 188 -145 268 -161
159 -555 294 -1144 392 -166 28 -356 52 -485 62 -47 4 -94 11 -105 17 -11 6
-111 70 -222 144 -518 342 -778 470 -1084 532 -203 42 -519 84 -789 106 -165
13 -758 19 -870 8z m1300 -193 c420 -38 716 -124 1036 -301 122 -68 339 -210
397 -261 l39 -33 -54 2 c-191 9 -701 9 -1238 0 -618 -9 -626 -9 -665 11 -52
26 -138 117 -255 271 -52 68 -129 167 -172 220 l-76 96 61 6 c98 10 789 2 927
-11z m-1341 -48 c125 -49 242 -153 350 -312 66 -95 191 -303 187 -308 -2 -1
-135 2 -297 7 -162 6 -591 18 -954 27 -363 10 -661 18 -663 19 -6 4 135 135
213 198 236 191 495 320 762 378 122 26 324 22 402 -9z m-734 -917 c365 -20
647 -41 970 -71 282 -26 655 -71 663 -79 3 -3 -31 -40 -76 -83 l-82 -78 -247
43 c-286 50 -1082 173 -1511 233 -162 23 -304 46 -315 51 -26 11 207 5 598
-16z m2635 5 c491 -33 946 -154 1180 -313 60 -41 160 -137 160 -153 0 -23 -72
-36 -236 -41 -253 -9 -580 23 -752 73 -153 45 -182 65 -343 245 -55 61 -94 94
-140 119 -35 18 -78 44 -97 57 l-35 23 59 0 c32 0 124 -5 204 -10z m2822 -381
c29 -28 30 -34 25 -88 -9 -108 -62 -173 -169 -211 -104 -36 -179 -43 -427 -37
-318 8 -430 31 -540 112 -71 52 -141 137 -141 171 0 13 9 28 20 34 12 6 137
15 288 21 147 6 339 14 427 18 88 4 233 9 323 10 l164 1 30 -31z m-5477 -560
c273 -33 1258 -187 1318 -205 13 -4 17 -16 17 -56 0 -47 -1 -50 -22 -45 -13 3
-149 29 -303 57 -700 127 -1275 249 -1275 270 0 9 63 4 265 -21z m3775 -50
c85 -11 211 -27 280 -37 l125 -18 -55 -43 c-75 -60 -222 -157 -292 -192 -56
-28 -62 -29 -206 -29 -180 0 -408 17 -442 33 -50 24 -31 86 60 195 51 61 97
96 148 113 36 11 190 3 382 -22z m1795 -278 c-18 -18 -160 -60 -285 -85 -130
-26 -297 -49 -482 -66 -276 -25 -657 -24 -588 2 47 18 216 37 495 58 154 11
323 25 375 31 137 14 464 59 469 65 2 2 9 4 15 4 6 0 6 -3 1 -9z"/>
<path d="M1875 6080 c-76 -16 -134 -80 -169 -189 -69 -207 -57 -469 28 -656
41 -89 85 -139 141 -161 122 -46 223 27 286 206 21 58 23 84 24 245 0 158 -3
189 -23 259 -40 139 -103 244 -166 278 -31 17 -87 25 -121 18z m103 -265 c44
-37 64 -96 70 -208 12 -243 -83 -379 -188 -268 -48 50 -65 112 -64 226 2 116
25 198 69 242 40 40 72 42 113 8z"/>
<path d="M4830 5828 c-79 -30 -185 -139 -233 -238 -70 -146 -82 -210 -82 -430
1 -183 3 -200 28 -283 58 -187 146 -311 270 -378 58 -32 68 -34 157 -34 83 0
102 3 151 28 147 71 251 230 295 447 25 127 16 354 -20 475 -57 189 -164 333
-298 400 -62 30 -80 35 -142 34 -47 0 -90 -7 -126 -21z m223 -325 c172 -110
184 -537 19 -685 -94 -85 -221 -47 -289 86 -82 162 -65 450 34 561 29 32 50
46 90 61 48 16 97 9 146 -23z"/>
<path d="M1892 4099 c-142 -22 -269 -87 -366 -190 -72 -76 -107 -135 -144
-239 -22 -65 -26 -92 -26 -200 -1 -145 14 -215 72 -330 72 -145 226 -268 383
-305 84 -20 244 -19 323 1 136 35 285 144 344 253 l23 41 -68 31 c-37 17 -91
41 -120 54 l-52 24 -20 -32 c-28 -46 -58 -72 -121 -103 -44 -22 -69 -27 -130
-28 -101 -1 -166 23 -234 84 -77 71 -109 146 -114 272 -5 116 18 206 72 280
133 179 400 178 508 -2 12 -19 23 -37 25 -39 5 -7 235 84 240 96 2 6 -8 37
-23 70 -33 71 -139 178 -207 212 -100 48 -245 68 -365 50z"/>
<path d="M5695 4100 c-110 -20 -188 -62 -258 -139 -61 -69 -87 -140 -87 -240
0 -104 37 -183 113 -241 63 -47 104 -65 272 -119 195 -63 245 -99 245 -177 0
-77 -96 -131 -218 -121 -82 6 -156 44 -220 111 l-50 53 -99 -99 -98 -100 58
-53 c68 -62 174 -118 267 -139 82 -20 258 -20 329 -1 131 34 227 112 279 223
23 49 27 70 27 152 0 112 -21 167 -91 237 -65 65 -134 96 -376 167 -99 30
-145 62 -154 110 -15 80 68 144 174 133 70 -7 151 -47 195 -97 l36 -38 98 94
98 94 -54 50 c-118 112 -320 170 -486 140z"/>
<path d="M2782 3563 c-105 -291 -207 -572 -226 -625 l-35 -98 147 0 148 0 37
115 38 115 237 0 237 0 41 -113 40 -112 151 -3 150 -3 -178 473 c-99 260 -205
542 -236 626 l-58 152 -151 0 -151 0 -191 -527z m422 -47 c42 -115 76 -210 76
-212 0 -2 -67 -4 -150 -4 -123 0 -150 3 -150 14 0 11 90 281 135 405 3 8 7 12
9 10 3 -2 38 -98 80 -213z"/>
<path d="M3870 3465 l0 -625 140 0 140 0 0 205 0 205 73 0 73 0 114 -205 115
-204 163 -1 c128 0 162 3 156 13 -4 6 -70 109 -147 227 -76 118 -134 216 -128
218 29 10 130 83 155 113 16 19 41 59 55 89 23 49 26 67 26 165 -1 140 -22
199 -102 285 -65 70 -146 114 -243 129 -36 6 -183 11 -327 11 l-263 0 0 -625z
m586 349 c55 -40 69 -70 69 -142 0 -79 -23 -120 -85 -152 -33 -17 -59 -20
-165 -20 l-125 0 0 171 0 171 139 -4 c122 -3 143 -6 167 -24z"/>
<path d="M6460 3465 l0 -625 135 0 135 0 0 625 0 625 -135 0 -135 0 0 -625z"/>
<path d="M6900 3965 l0 -125 175 0 175 0 0 -500 0 -500 140 0 140 0 0 500 0
500 178 0 177 0 -2 122 -2 123 -490 3 -491 2 0 -125z"/>
<path d="M8050 3465 l0 -625 419 0 420 0 3 120 3 120 -282 0 -283 0 0 135 0
135 245 0 245 0 0 115 0 115 -245 0 -245 0 0 130 0 130 270 0 270 0 0 125 0
125 -410 0 -410 0 0 -625z"/>
</g>
</svg>
